# xmcd
#
# Track frame offsets: 
#        150
#        18453
#        40120
#        48917
#        72351
#
# Disc length: 1210 seconds
#
# Revision: 0
# Processed by: cddbd v1.5.2PL0 Copyright (c) Steve Scherf et al.
# Submitted via: ExactAudioCopyFreeDBPlugin 1.0
#
DISCID=3a04b805
DTITLE=三枝夕夏 IN db  - 雲に乗って
DYEAR=1900
DGENRE=
TTITLE0=1 雲に乗って（読売テレビ?日本テレビ系全国ネット「名探偵コナン」オープニングテーマ）
TTITLE1=2 流星のノスタルジア
TTITLE2=3 雲に乗って（ＴＶ　ｖｅｒｓｉｏｎ）
TTITLE3=4 Ｈａｎｄ　ｔｏ　Ｈａｎｄ（ｎｅｗ　ｖｅｒ．）
TTITLE4=5 雲に乗って（Ｉｎｓｔｒｕｍｅｎｔａｌ）
EXTD=
EXTT0=
EXTT1=
EXTT2=
EXTT3=
EXTT4=
PLAYORDER=
